<svg width="21" height="21" viewBox="0 0 21 21" fill="none" xmlns="http://www.w3.org/2000/svg">
<path d="M8.48733 9H0.512674C0.376705 9 0.246304 8.94599 0.150159 8.84984C0.0540139 8.7537 0 8.6233 0 8.48733V0.512674C0 0.376705 0.0540139 0.246304 0.150159 0.150159C0.246304 0.0540139 0.376705 0 0.512674 0H8.48733C8.6233 0 8.7537 0.0540139 8.84984 0.150159C8.94599 0.246304 9 0.376705 9 0.512674V8.48733C9 8.6233 8.94599 8.7537 8.84984 8.84984C8.7537 8.94599 8.6233 9 8.48733 9ZM1.02535 7.97465H7.97465V1.02535H1.02535V7.97465Z" />
<path d="M20.4873 9H12.5127C12.3767 9 12.2463 8.94599 12.1502 8.84984C12.054 8.7537 12 8.6233 12 8.48733V0.512674C12 0.376705 12.054 0.246304 12.1502 0.150159C12.2463 0.0540139 12.3767 0 12.5127 0H20.4873C20.6233 0 20.7537 0.0540139 20.8498 0.150159C20.946 0.246304 21 0.376705 21 0.512674V8.48733C21 8.6233 20.946 8.7537 20.8498 8.84984C20.7537 8.94599 20.6233 9 20.4873 9ZM13.0253 7.97465H19.9747V1.02535H13.0253V7.97465Z" />
<path d="M20.4873 21H12.5127C12.3767 21 12.2463 20.946 12.1502 20.8498C12.054 20.7537 12 20.6233 12 20.4873V12.5127C12 12.3767 12.054 12.2463 12.1502 12.1502C12.2463 12.054 12.3767 12 12.5127 12H20.4873C20.6233 12 20.7537 12.054 20.8498 12.1502C20.946 12.2463 21 12.3767 21 12.5127V20.4873C21 20.6233 20.946 20.7537 20.8498 20.8498C20.7537 20.946 20.6233 21 20.4873 21ZM13.0253 19.9747H19.9747V13.0253H13.0253V19.9747Z" />
<path d="M8.48733 21H0.512674C0.376705 21 0.246304 20.946 0.150159 20.8498C0.0540139 20.7537 0 20.6233 0 20.4873V12.5127C0 12.3767 0.0540139 12.2463 0.150159 12.1502C0.246304 12.054 0.376705 12 0.512674 12H8.48733C8.6233 12 8.7537 12.054 8.84984 12.1502C8.94599 12.2463 9 12.3767 9 12.5127V20.4873C9 20.6233 8.94599 20.7537 8.84984 20.8498C8.7537 20.946 8.6233 21 8.48733 21ZM1.02535 19.9747H7.97465V13.0253H1.02535V19.9747Z" />
</svg>
