<svg width="22" height="22" viewBox="0 0 22 22" fill="none" xmlns="http://www.w3.org/2000/svg">
<path d="M20.8521 16.6674L22 13.8592L20.7035 12.6992C20.2093 12.2566 19.9247 11.6248 19.9207 10.9614C19.9207 10.9607 19.9207 10.9607 19.9207 10.9607C19.9174 10.2949 20.1968 9.66028 20.6884 9.21217L21.9739 8.04164L20.8001 5.24369L19.0645 5.34046C18.4006 5.37711 17.7506 5.13089 17.2788 4.66259C17.2788 4.66259 17.2779 4.66259 17.2779 4.66193C16.807 4.19517 16.5557 3.54956 16.5862 2.88595L16.6677 1.14815L13.859 0L12.6994 1.29671C12.2568 1.79091 11.6248 2.07553 10.9612 2.07904C10.9612 2.07904 10.9607 2.07904 10.9598 2.07904C10.296 2.08255 9.66072 1.8032 9.21282 1.31185L8.04142 0.0263336L5.24347 1.19972L5.34068 2.93576C5.37667 3.59981 5.13045 4.24937 4.66215 4.72118C4.66215 4.72118 4.66215 4.72184 4.66171 4.72184C4.19495 5.19321 3.54934 5.44426 2.88551 5.41354L1.14749 5.33234L0 8.14061L1.29671 9.3006C1.79091 9.74323 2.07553 10.375 2.07926 11.0384V11.0391C2.08233 11.7046 1.8032 12.3397 1.31163 12.7876L0.0258947 13.9584L1.19994 16.7565L2.9351 16.6593C3.59981 16.6233 4.24937 16.8696 4.7214 17.3379C4.72184 17.3379 4.72184 17.3379 4.72184 17.3381C5.19299 17.8055 5.44382 18.4507 5.41354 19.1141L5.33212 20.8519L8.14039 22L9.2938 20.7121C9.73993 20.2126 10.377 19.9249 11.0467 19.9212C11.0474 19.9212 11.0476 19.9212 11.0476 19.9212C11.7068 19.9172 12.336 20.1931 12.7797 20.6809L13.9588 21.9743L16.7565 20.8003L16.6593 19.0631C16.6233 18.3998 16.8691 17.7508 17.3368 17.2799C17.3368 17.2793 17.3374 17.2793 17.3374 17.2793C17.8044 16.8074 18.4511 16.556 19.1147 16.5869L20.8521 16.6674ZM9.43666 14.8241C7.32448 13.9597 6.31239 11.5477 7.17614 9.43666C8.03944 7.32448 10.4516 6.31261 12.5638 7.17679C14.6755 8.03944 15.6867 10.452 14.8232 12.5631C13.9597 14.6751 11.548 15.6865 9.43666 14.8241Z" />
</svg>
